<svg width="79" height="27" viewBox="0 0 79 27" fill="none" xmlns="http://www.w3.org/2000/svg">
<mask id="path-1-outside-1_2636_3737" maskUnits="userSpaceOnUse" x="0" y="0" width="79" height="27" fill="black">
<rect fill="white" width="79" height="27"/>
<path d="M8.068 23.056C6.78 23.056 5.76267 22.4307 5.016 21.18C4.288 19.9293 3.85867 18.2867 3.728 16.252C3.57867 13.732 3.84933 11.5107 4.54 9.588C5.24933 7.64667 6.31333 6.13467 7.732 5.052C9.15067 3.96933 10.84 3.428 12.8 3.428C14.7787 3.428 16.468 3.96933 17.868 5.052C19.2867 6.13467 20.3413 7.63733 21.032 9.56C21.7413 11.4827 22.012 13.7133 21.844 16.252C21.7133 18.3427 21.2747 19.9947 20.528 21.208C19.8 22.4213 18.792 23.028 17.504 23.028C16.776 23.028 16.216 22.8973 15.824 22.636C15.432 22.356 15.152 22.0107 14.984 21.6C14.8347 21.1707 14.76 20.7413 14.76 20.312C14.76 19.864 14.788 19.4813 14.844 19.164C14.2467 19.1827 13.5467 19.2013 12.744 19.22C11.9413 19.22 11.2693 19.2013 10.728 19.164C10.784 19.4813 10.812 19.864 10.812 20.312C10.812 20.7413 10.728 21.1707 10.56 21.6C10.4107 22.0107 10.14 22.356 9.748 22.636C9.356 22.916 8.796 23.056 8.068 23.056ZM10.532 14.18C12.0067 14.124 13.4813 14.124 14.956 14.18C15.0493 13.5267 15.04 12.9013 14.928 12.304C14.816 11.7067 14.5827 11.2213 14.228 10.848C13.8733 10.4747 13.3693 10.288 12.716 10.288C12.0627 10.288 11.5587 10.4747 11.204 10.848C10.868 11.2213 10.644 11.7067 10.532 12.304C10.4387 12.8827 10.4387 13.508 10.532 14.18ZM31.0621 23C29.2515 23 27.6741 22.6267 26.3301 21.88C25.0048 21.1333 24.1275 19.9573 23.6981 18.352C23.5115 17.6427 23.3901 16.784 23.3341 15.776C23.2968 14.7493 23.2781 13.6667 23.2781 12.528C23.2781 11.408 23.3248 10.3067 23.4181 9.224C23.5301 8.14133 23.7355 7.16133 24.0341 6.284C24.3328 5.40667 24.7808 4.70667 25.3781 4.184C25.9941 3.66133 26.8061 3.4 27.8141 3.4C28.5981 3.4 29.2515 3.58667 29.7741 3.96C30.3155 4.33333 30.7261 4.828 31.0061 5.444C31.2861 6.06 31.4261 6.74133 31.4261 7.488C31.4261 8.888 31.2955 10.3907 31.0341 11.996C30.7728 13.6013 30.5115 15.1133 30.2501 16.532C30.8475 16.3453 31.5288 16.2053 32.2941 16.112C33.0781 16 33.8621 15.9627 34.6461 16C35.4488 16.0187 36.1861 16.1493 36.8581 16.392C37.5301 16.616 38.0715 16.9707 38.4821 17.456C38.8928 17.9227 39.0981 18.5387 39.0981 19.304C39.0981 20.2187 38.8648 20.9373 38.3981 21.46C37.9315 21.964 37.3061 22.328 36.5221 22.552C35.7381 22.7573 34.8701 22.888 33.9181 22.944C32.9661 22.9813 32.0141 23 31.0621 23ZM48.0839 23.028C46.7959 23.0467 45.5826 22.8133 44.4439 22.328C43.3053 21.8427 42.2973 21.152 41.4199 20.256C40.5426 19.36 39.8519 18.3147 39.3479 17.12C38.8439 15.9253 38.5733 14.628 38.5359 13.228C38.5173 11.884 38.7506 10.624 39.2359 9.448C39.7213 8.272 40.4026 7.236 41.2799 6.34C42.1573 5.444 43.1746 4.744 44.3319 4.24C45.4893 3.71733 46.7399 3.456 48.0839 3.456C49.3719 3.43733 50.5853 3.67067 51.7239 4.156C52.8626 4.64133 53.8706 5.332 54.7479 6.228C55.6253 7.10533 56.3159 8.14133 56.8199 9.336C57.3426 10.5307 57.6133 11.828 57.6319 13.228C57.6693 14.572 57.4359 15.832 56.9319 17.008C56.4466 18.184 55.7653 19.22 54.8879 20.116C54.0106 20.9933 52.9839 21.6933 51.8079 22.216C50.6506 22.72 49.4093 22.9907 48.0839 23.028ZM48.1679 17.568C48.9893 17.568 49.7079 17.2693 50.3239 16.672C50.9586 16.0747 51.2666 15.2627 51.2479 14.236C51.2479 13.1907 50.9399 12.3693 50.3239 11.772C49.7079 11.1747 48.9893 10.876 48.1679 10.876C47.3466 10.876 46.6279 11.1747 46.0119 11.772C45.3959 12.3693 45.0879 13.1907 45.0879 14.236C45.0879 15.2627 45.3959 16.0747 46.0119 16.672C46.6279 17.2693 47.3466 17.568 48.1679 17.568ZM68.1009 22.944C66.3275 22.944 64.7129 22.5893 63.2569 21.88C61.8009 21.152 60.6435 20.06 59.7849 18.604C58.9262 17.148 58.4969 15.328 58.4969 13.144C58.4969 11.856 58.7209 10.6333 59.1689 9.476C59.6169 8.3 60.2422 7.25467 61.0449 6.34C61.8662 5.42533 62.8275 4.70667 63.9289 4.184C65.0302 3.66133 66.2435 3.4 67.5689 3.4C69.2302 3.4 70.6862 3.708 71.9369 4.324C73.1875 4.92133 74.1582 5.74267 74.8489 6.788C75.5582 7.83333 75.9129 9 75.9129 10.288C75.9129 10.792 75.8102 11.2773 75.6049 11.744C75.4182 12.192 75.1195 12.5653 74.7089 12.864C74.3169 13.1627 73.8035 13.312 73.1689 13.312C72.5715 13.312 72.0955 13.2187 71.7409 13.032C71.4049 12.8453 71.1155 12.6213 70.8729 12.36C70.6489 12.08 70.4155 11.8 70.1729 11.52C69.9302 11.24 69.6315 11.0067 69.2769 10.82C68.9222 10.6333 68.4369 10.54 67.8209 10.54C67.2422 10.54 66.7102 10.6893 66.2249 10.988C65.7395 11.2867 65.3475 11.6973 65.0489 12.22C64.7689 12.724 64.6289 13.3027 64.6289 13.956C64.6289 14.9267 64.8809 15.776 65.3849 16.504C65.9075 17.232 66.6449 17.596 67.5969 17.596C68.3435 17.596 68.9315 17.484 69.3609 17.26C69.8089 17.036 70.1822 16.784 70.4809 16.504C70.7982 16.2053 71.1342 15.944 71.4889 15.72C71.8622 15.496 72.3382 15.384 72.9169 15.384C73.7382 15.384 74.3542 15.6547 74.7649 16.196C75.1942 16.7373 75.3715 17.4 75.2969 18.184C75.2222 18.9867 74.8675 19.752 74.2329 20.48C73.6169 21.208 72.7769 21.8053 71.7129 22.272C70.6675 22.72 69.4635 22.944 68.1009 22.944Z"/>
</mask>
<path d="M8.068 23.056C6.78 23.056 5.76267 22.4307 5.016 21.18C4.288 19.9293 3.85867 18.2867 3.728 16.252C3.57867 13.732 3.84933 11.5107 4.54 9.588C5.24933 7.64667 6.31333 6.13467 7.732 5.052C9.15067 3.96933 10.84 3.428 12.8 3.428C14.7787 3.428 16.468 3.96933 17.868 5.052C19.2867 6.13467 20.3413 7.63733 21.032 9.56C21.7413 11.4827 22.012 13.7133 21.844 16.252C21.7133 18.3427 21.2747 19.9947 20.528 21.208C19.8 22.4213 18.792 23.028 17.504 23.028C16.776 23.028 16.216 22.8973 15.824 22.636C15.432 22.356 15.152 22.0107 14.984 21.6C14.8347 21.1707 14.76 20.7413 14.76 20.312C14.76 19.864 14.788 19.4813 14.844 19.164C14.2467 19.1827 13.5467 19.2013 12.744 19.22C11.9413 19.22 11.2693 19.2013 10.728 19.164C10.784 19.4813 10.812 19.864 10.812 20.312C10.812 20.7413 10.728 21.1707 10.56 21.6C10.4107 22.0107 10.14 22.356 9.748 22.636C9.356 22.916 8.796 23.056 8.068 23.056ZM10.532 14.18C12.0067 14.124 13.4813 14.124 14.956 14.18C15.0493 13.5267 15.04 12.9013 14.928 12.304C14.816 11.7067 14.5827 11.2213 14.228 10.848C13.8733 10.4747 13.3693 10.288 12.716 10.288C12.0627 10.288 11.5587 10.4747 11.204 10.848C10.868 11.2213 10.644 11.7067 10.532 12.304C10.4387 12.8827 10.4387 13.508 10.532 14.18ZM31.0621 23C29.2515 23 27.6741 22.6267 26.3301 21.88C25.0048 21.1333 24.1275 19.9573 23.6981 18.352C23.5115 17.6427 23.3901 16.784 23.3341 15.776C23.2968 14.7493 23.2781 13.6667 23.2781 12.528C23.2781 11.408 23.3248 10.3067 23.4181 9.224C23.5301 8.14133 23.7355 7.16133 24.0341 6.284C24.3328 5.40667 24.7808 4.70667 25.3781 4.184C25.9941 3.66133 26.8061 3.4 27.8141 3.4C28.5981 3.4 29.2515 3.58667 29.7741 3.96C30.3155 4.33333 30.7261 4.828 31.0061 5.444C31.2861 6.06 31.4261 6.74133 31.4261 7.488C31.4261 8.888 31.2955 10.3907 31.0341 11.996C30.7728 13.6013 30.5115 15.1133 30.2501 16.532C30.8475 16.3453 31.5288 16.2053 32.2941 16.112C33.0781 16 33.8621 15.9627 34.6461 16C35.4488 16.0187 36.1861 16.1493 36.8581 16.392C37.5301 16.616 38.0715 16.9707 38.4821 17.456C38.8928 17.9227 39.0981 18.5387 39.0981 19.304C39.0981 20.2187 38.8648 20.9373 38.3981 21.46C37.9315 21.964 37.3061 22.328 36.5221 22.552C35.7381 22.7573 34.8701 22.888 33.9181 22.944C32.9661 22.9813 32.0141 23 31.0621 23ZM48.0839 23.028C46.7959 23.0467 45.5826 22.8133 44.4439 22.328C43.3053 21.8427 42.2973 21.152 41.4199 20.256C40.5426 19.36 39.8519 18.3147 39.3479 17.12C38.8439 15.9253 38.5733 14.628 38.5359 13.228C38.5173 11.884 38.7506 10.624 39.2359 9.448C39.7213 8.272 40.4026 7.236 41.2799 6.34C42.1573 5.444 43.1746 4.744 44.3319 4.24C45.4893 3.71733 46.7399 3.456 48.0839 3.456C49.3719 3.43733 50.5853 3.67067 51.7239 4.156C52.8626 4.64133 53.8706 5.332 54.7479 6.228C55.6253 7.10533 56.3159 8.14133 56.8199 9.336C57.3426 10.5307 57.6133 11.828 57.6319 13.228C57.6693 14.572 57.4359 15.832 56.9319 17.008C56.4466 18.184 55.7653 19.22 54.8879 20.116C54.0106 20.9933 52.9839 21.6933 51.8079 22.216C50.6506 22.72 49.4093 22.9907 48.0839 23.028ZM48.1679 17.568C48.9893 17.568 49.7079 17.2693 50.3239 16.672C50.9586 16.0747 51.2666 15.2627 51.2479 14.236C51.2479 13.1907 50.9399 12.3693 50.3239 11.772C49.7079 11.1747 48.9893 10.876 48.1679 10.876C47.3466 10.876 46.6279 11.1747 46.0119 11.772C45.3959 12.3693 45.0879 13.1907 45.0879 14.236C45.0879 15.2627 45.3959 16.0747 46.0119 16.672C46.6279 17.2693 47.3466 17.568 48.1679 17.568ZM68.1009 22.944C66.3275 22.944 64.7129 22.5893 63.2569 21.88C61.8009 21.152 60.6435 20.06 59.7849 18.604C58.9262 17.148 58.4969 15.328 58.4969 13.144C58.4969 11.856 58.7209 10.6333 59.1689 9.476C59.6169 8.3 60.2422 7.25467 61.0449 6.34C61.8662 5.42533 62.8275 4.70667 63.9289 4.184C65.0302 3.66133 66.2435 3.4 67.5689 3.4C69.2302 3.4 70.6862 3.708 71.9369 4.324C73.1875 4.92133 74.1582 5.74267 74.8489 6.788C75.5582 7.83333 75.9129 9 75.9129 10.288C75.9129 10.792 75.8102 11.2773 75.6049 11.744C75.4182 12.192 75.1195 12.5653 74.7089 12.864C74.3169 13.1627 73.8035 13.312 73.1689 13.312C72.5715 13.312 72.0955 13.2187 71.7409 13.032C71.4049 12.8453 71.1155 12.6213 70.8729 12.36C70.6489 12.08 70.4155 11.8 70.1729 11.52C69.9302 11.24 69.6315 11.0067 69.2769 10.82C68.9222 10.6333 68.4369 10.54 67.8209 10.54C67.2422 10.54 66.7102 10.6893 66.2249 10.988C65.7395 11.2867 65.3475 11.6973 65.0489 12.22C64.7689 12.724 64.6289 13.3027 64.6289 13.956C64.6289 14.9267 64.8809 15.776 65.3849 16.504C65.9075 17.232 66.6449 17.596 67.5969 17.596C68.3435 17.596 68.9315 17.484 69.3609 17.26C69.8089 17.036 70.1822 16.784 70.4809 16.504C70.7982 16.2053 71.1342 15.944 71.4889 15.72C71.8622 15.496 72.3382 15.384 72.9169 15.384C73.7382 15.384 74.3542 15.6547 74.7649 16.196C75.1942 16.7373 75.3715 17.4 75.2969 18.184C75.2222 18.9867 74.8675 19.752 74.2329 20.48C73.6169 21.208 72.7769 21.8053 71.7129 22.272C70.6675 22.72 69.4635 22.944 68.1009 22.944Z" fill="#408CFF"/>
<path d="M5.016 21.18L2.42326 22.6892L2.43162 22.7036L2.44014 22.7178L5.016 21.18ZM3.728 16.252L0.733254 16.4295L0.733692 16.4369L0.734167 16.4443L3.728 16.252ZM4.54 9.588L1.72221 8.55842L1.7194 8.56609L1.71664 8.57378L4.54 9.588ZM7.732 5.052L9.55202 7.43685L9.55202 7.43685L7.732 5.052ZM17.868 5.052L16.0328 7.42516L16.0403 7.43103L16.048 7.43685L17.868 5.052ZM21.032 9.56L18.2086 10.5742L18.213 10.5863L18.2174 10.5984L21.032 9.56ZM21.844 16.252L18.8505 16.0539L18.8498 16.0649L21.844 16.252ZM20.528 21.208L17.973 19.6357L17.9642 19.6501L17.9555 19.6645L20.528 21.208ZM15.824 22.636L14.0803 25.0772L14.1197 25.1053L14.1599 25.1322L15.824 22.636ZM14.984 21.6L12.1505 22.5856L12.1769 22.6615L12.2074 22.7359L14.984 21.6ZM14.844 19.164L17.7984 19.6854L18.4399 16.0502L14.7503 16.1655L14.844 19.164ZM12.744 19.22V22.22H12.7789L12.8137 22.2192L12.744 19.22ZM10.728 19.164L10.9344 16.1711L7.10691 15.9071L7.77365 19.6854L10.728 19.164ZM10.56 21.6L7.76627 20.5068L7.75303 20.5406L7.74062 20.5748L10.56 21.6ZM9.748 22.636L8.00429 20.1948H8.00429L9.748 22.636ZM10.532 14.18L7.56052 14.5927L7.93388 17.2808L10.6458 17.1778L10.532 14.18ZM14.956 14.18L14.8422 17.1778L17.5435 17.2804L17.9258 14.6043L14.956 14.18ZM14.928 12.304L17.8766 11.7511V11.7511L14.928 12.304ZM14.228 10.848L12.053 12.9142L12.053 12.9142L14.228 10.848ZM11.204 10.848L9.029 8.78175L9.00116 8.81106L8.97412 8.8411L11.204 10.848ZM10.532 12.304L7.58338 11.7511L7.57635 11.7886L7.57028 11.8263L10.532 12.304ZM8.068 20.056C7.9906 20.056 7.95107 20.0469 7.93813 20.0434C7.92668 20.0403 7.91999 20.0374 7.90998 20.0312C7.89449 20.0217 7.77105 19.9423 7.59187 19.6422L2.44014 22.7178C3.6435 24.7335 5.5685 26.056 8.068 26.056V20.056ZM7.60874 19.6708C7.19036 18.952 6.83412 17.8082 6.72183 16.0597L0.734167 16.4443C0.883217 18.7652 1.38564 20.9066 2.42326 22.6892L7.60874 19.6708ZM6.72275 16.0745C6.59191 13.8666 6.83799 12.0647 7.36336 10.6022L1.71664 8.57378C0.860679 10.9566 0.565425 13.5974 0.733254 16.4295L6.72275 16.0745ZM7.35779 10.6176C7.9024 9.12707 8.65678 8.12007 9.55202 7.43685L5.91198 2.66715C3.96989 4.14927 2.59626 6.16626 1.72221 8.55842L7.35779 10.6176ZM9.55202 7.43685C10.396 6.7928 11.4293 6.428 12.8 6.428V0.427999C10.2507 0.427999 7.90538 1.14587 5.91198 2.66715L9.55202 7.43685ZM12.8 6.428C14.1971 6.428 15.2201 6.79669 16.0328 7.42516L19.7032 2.67884C17.7159 1.14197 15.3603 0.427999 12.8 0.427999V6.428ZM16.048 7.43685C16.9433 8.12014 17.6844 9.11472 18.2086 10.5742L23.8554 8.54578C22.9983 6.15995 21.63 4.14919 19.688 2.66715L16.048 7.43685ZM18.2174 10.5984C18.7503 12.0428 18.9973 13.8368 18.8505 16.0539L24.8375 16.4501C25.0267 13.5899 24.7323 10.9226 23.8466 8.52162L18.2174 10.5984ZM18.8498 16.0649C18.7365 17.8787 18.3692 18.9919 17.973 19.6357L23.083 22.7803C24.1801 20.9974 24.6902 18.8066 24.8382 16.4391L18.8498 16.0649ZM17.9555 19.6645C17.7933 19.9349 17.685 19.999 17.679 20.0026C17.6726 20.0065 17.6662 20.0098 17.6511 20.0138C17.6344 20.0182 17.589 20.028 17.504 20.028V26.028C19.9651 26.028 21.8947 24.7612 23.1005 22.7515L17.9555 19.6645ZM17.504 20.028C17.4109 20.028 17.3412 20.0238 17.2923 20.0188C17.2681 20.0164 17.2502 20.0139 17.2379 20.0119C17.2318 20.0109 17.2273 20.01 17.2242 20.0094C17.2212 20.0088 17.2197 20.0085 17.2197 20.0085C17.2197 20.0085 17.2213 20.0088 17.2243 20.0097C17.2274 20.0105 17.232 20.0118 17.238 20.0137C17.2501 20.0175 17.2683 20.0238 17.2918 20.0335C17.3388 20.0528 17.4074 20.086 17.4881 20.1398L14.1599 25.1322C15.2457 25.856 16.4832 26.028 17.504 26.028V20.028ZM17.5677 20.1948C17.5729 20.1985 17.6069 20.2241 17.6503 20.2776C17.6947 20.3324 17.7333 20.3972 17.7606 20.4641L12.2074 22.7359C12.608 23.7152 13.2688 24.4975 14.0803 25.0772L17.5677 20.1948ZM17.8175 20.6144C17.7719 20.4833 17.76 20.3865 17.76 20.312H11.76C11.76 21.0961 11.8975 21.8581 12.1505 22.5856L17.8175 20.6144ZM17.76 20.312C17.76 19.9767 17.7819 19.7787 17.7984 19.6854L11.8896 18.6426C11.7941 19.184 11.76 19.7513 11.76 20.312H17.76ZM14.7503 16.1655C14.1631 16.1838 13.4714 16.2023 12.6743 16.2208L12.8137 22.2192C13.6219 22.2004 14.3302 22.1815 14.9377 22.1625L14.7503 16.1655ZM12.744 16.22C11.981 16.22 11.383 16.202 10.9344 16.1711L10.5216 22.1569C11.1556 22.2006 11.9017 22.22 12.744 22.22V16.22ZM7.77365 19.6854C7.79011 19.7787 7.812 19.9767 7.812 20.312H13.812C13.812 19.7513 13.7779 19.184 13.6824 18.6426L7.77365 19.6854ZM7.812 20.312C7.812 20.3404 7.8081 20.3999 7.76627 20.5068L13.3537 22.6932C13.6479 21.9414 13.812 21.1423 13.812 20.312H7.812ZM7.74062 20.5748C7.77462 20.4813 7.82464 20.3919 7.88383 20.3164C7.94144 20.2429 7.98994 20.205 8.00429 20.1948L11.4917 25.0772C12.3244 24.4825 13.0017 23.6638 13.3794 22.6252L7.74062 20.5748ZM8.00429 20.1948C8.16872 20.0773 8.29193 20.0442 8.30639 20.0406C8.31397 20.0387 8.29953 20.0428 8.25832 20.0473C8.2172 20.0518 8.15473 20.056 8.068 20.056V26.056C9.12002 26.056 10.391 25.8634 11.4917 25.0772L8.00429 20.1948ZM10.6458 17.1778C12.0446 17.1247 13.4434 17.1247 14.8422 17.1778L15.0698 11.1822C13.5193 11.1233 11.9687 11.1233 10.4182 11.1822L10.6458 17.1778ZM17.9258 14.6043C18.0616 13.6541 18.054 12.6974 17.8766 11.7511L11.9794 12.8569C12.026 13.1053 12.0371 13.3992 11.9862 13.7557L17.9258 14.6043ZM17.8766 11.7511C17.6776 10.6895 17.2233 9.64518 16.403 8.78175L12.053 12.9142C12.0307 12.8908 12.0116 12.8668 11.996 12.844C11.9805 12.8213 11.9706 12.8031 11.9652 12.7919C11.9543 12.7692 11.9658 12.7843 11.9794 12.8569L17.8766 11.7511ZM16.403 8.78175C15.3387 7.66142 13.9575 7.288 12.716 7.288V13.288C12.7613 13.288 12.6868 13.2948 12.5421 13.2412C12.3836 13.1826 12.2052 13.0745 12.053 12.9142L16.403 8.78175ZM12.716 7.288C11.4745 7.288 10.0933 7.66143 9.029 8.78175L13.379 12.9142C13.2268 13.0745 13.0484 13.1826 12.8899 13.2412C12.7452 13.2948 12.6707 13.288 12.716 13.288V7.288ZM8.97412 8.8411C8.19897 9.70238 7.77552 10.7264 7.58338 11.7511L13.4806 12.8569C13.4971 12.7688 13.5126 12.739 13.5079 12.7492C13.5055 12.7544 13.4987 12.7681 13.4858 12.7878C13.4729 12.8076 13.4557 12.8307 13.4339 12.8549L8.97412 8.8411ZM7.57028 11.8263C7.42262 12.7418 7.43245 13.6706 7.56052 14.5927L13.5035 13.7673C13.4449 13.3454 13.4547 13.0236 13.4937 12.7817L7.57028 11.8263ZM26.3301 21.88L24.8576 24.4937L24.8654 24.4981L24.8732 24.5025L26.3301 21.88ZM23.6981 18.352L20.7969 19.1155L20.8 19.1271L23.6981 18.352ZM23.3341 15.776L20.3361 15.885L20.3372 15.9137L20.3387 15.9424L23.3341 15.776ZM23.4181 9.224L20.434 8.9153L20.4314 8.9408L20.4292 8.96634L23.4181 9.224ZM24.0341 6.284L26.8741 7.25079V7.25079L24.0341 6.284ZM25.3781 4.184L23.4372 1.89647L23.4198 1.91124L23.4026 1.92627L25.3781 4.184ZM29.7741 3.96L28.0304 6.4012L28.0506 6.41559L28.0709 6.42964L29.7741 3.96ZM31.0061 5.444L33.7372 4.20259L33.7372 4.20259L31.0061 5.444ZM31.0341 11.996L33.9951 12.478L31.0341 11.996ZM30.2501 16.532L27.2998 15.9885L26.399 20.8786L31.145 19.3954L30.2501 16.532ZM32.2941 16.112L32.6573 19.0899L32.6879 19.0862L32.7184 19.0818L32.2941 16.112ZM34.6461 16L34.5034 18.9966L34.5399 18.9983L34.5764 18.9992L34.6461 16ZM36.8581 16.392L35.8392 19.2137L35.8742 19.2263L35.9094 19.238L36.8581 16.392ZM38.4821 17.456L36.192 19.3938L36.2108 19.416L36.23 19.4379L38.4821 17.456ZM38.3981 21.46L40.5994 23.4982L40.6179 23.4783L40.6359 23.458L38.3981 21.46ZM36.5221 22.552L37.2822 25.4541L37.3143 25.4457L37.3463 25.4366L36.5221 22.552ZM33.9181 22.944L34.0357 25.9417L34.065 25.9405L34.0943 25.9388L33.9181 22.944ZM31.0621 20C29.6704 20 28.6121 19.7159 27.7871 19.2575L24.8732 24.5025C26.7361 25.5374 28.8325 26 31.0621 26V20ZM27.8027 19.2663C27.2492 18.9544 26.8384 18.4821 26.5963 17.5769L20.8 19.1271C21.4166 21.4325 22.7604 23.3122 24.8576 24.4937L27.8027 19.2663ZM26.5993 17.5885C26.4792 17.1319 26.3782 16.4854 26.3295 15.6096L20.3387 15.9424C20.4021 17.0826 20.5437 18.1534 20.7969 19.1155L26.5993 17.5885ZM26.3321 15.667C26.2963 14.6803 26.2781 13.6342 26.2781 12.528H20.2781C20.2781 13.6992 20.2973 14.8184 20.3361 15.885L26.3321 15.667ZM26.2781 12.528C26.2781 11.4914 26.3213 10.4761 26.407 9.48166L20.4292 8.96634C20.3283 10.1373 20.2781 11.3246 20.2781 12.528H26.2781ZM26.4022 9.5327C26.4949 8.63636 26.6593 7.88171 26.8741 7.25079L21.1942 5.31721C20.8116 6.44096 20.5653 7.64631 20.434 8.9153L26.4022 9.5327ZM26.8741 7.25079C27.0317 6.78781 27.2149 6.56311 27.3536 6.44173L23.4026 1.92627C22.3467 2.85022 21.6339 4.02553 21.1942 5.31721L26.8741 7.25079ZM27.3191 6.47153C27.3191 6.47152 27.319 6.47161 27.3188 6.47177C27.3186 6.47192 27.3184 6.47205 27.3183 6.47212C27.3179 6.47235 27.3186 6.47188 27.3207 6.47073C27.3242 6.46881 27.3384 6.46135 27.3682 6.45174C27.4289 6.4322 27.567 6.4 27.8141 6.4V0.399999C26.2769 0.399999 24.7194 0.808524 23.4372 1.89647L27.3191 6.47153ZM27.8141 6.4C27.9692 6.4 28.0468 6.41852 28.068 6.42457C28.0842 6.42922 28.0638 6.42507 28.0304 6.4012L31.5178 1.5188C30.383 0.708208 29.0831 0.399999 27.8141 0.399999V6.4ZM28.0709 6.42964C28.1512 6.48502 28.2132 6.54934 28.275 6.68541L33.7372 4.20259C33.2391 3.10666 32.4797 2.18165 31.4773 1.49036L28.0709 6.42964ZM28.275 6.68541C28.3602 6.87282 28.4261 7.1249 28.4261 7.488H34.4261C34.4261 6.35776 34.212 5.24718 33.7372 4.20259L28.275 6.68541ZM28.4261 7.488C28.4261 8.70316 28.3125 10.0431 28.0731 11.514L33.9951 12.478C34.2784 10.7382 34.4261 9.07284 34.4261 7.488H28.4261ZM28.0731 11.514C27.8147 13.1013 27.5569 14.5927 27.2998 15.9885L33.2005 17.0755C33.466 15.634 33.7309 14.1013 33.9951 12.478L28.0731 11.514ZM31.145 19.3954C31.5345 19.2737 32.0326 19.1661 32.6573 19.0899L31.931 13.1341C31.025 13.2445 30.1604 13.417 29.3553 13.6686L31.145 19.3954ZM32.7184 19.0818C33.3164 18.9964 33.9105 18.9684 34.5034 18.9966L34.7888 13.0034C33.8137 12.957 32.8399 13.0036 31.8699 13.1422L32.7184 19.0818ZM34.5764 18.9992C35.0948 19.0112 35.5071 19.0937 35.8392 19.2137L37.8771 13.5703C36.8652 13.2049 35.8028 13.0261 34.7159 13.0008L34.5764 18.9992ZM35.9094 19.238C36.1207 19.3085 36.1762 19.3752 36.192 19.3938L40.7723 15.5182C39.9667 14.5661 38.9395 13.9235 37.8068 13.5459L35.9094 19.238ZM36.23 19.4379C36.1973 19.4007 36.1681 19.3597 36.1441 19.3176C36.1203 19.2758 36.106 19.2405 36.0981 19.2167C36.0824 19.1697 36.0981 19.1876 36.0981 19.304H42.0981C42.0981 17.9848 41.7315 16.6074 40.7343 15.4741L36.23 19.4379ZM36.0981 19.304C36.0981 19.5107 36.0713 19.5977 36.0698 19.6026C36.0694 19.6037 36.0749 19.5866 36.0912 19.5577C36.1078 19.5282 36.131 19.4948 36.1603 19.462L40.6359 23.458C41.7279 22.2351 42.0981 20.7253 42.0981 19.304H36.0981ZM36.1968 19.4218C36.1678 19.4532 36.0538 19.5658 35.698 19.6674L37.3463 25.4366C38.5585 25.0902 39.6952 24.4748 40.5994 23.4982L36.1968 19.4218ZM35.762 19.6499C35.1991 19.7973 34.5303 19.9028 33.742 19.9492L34.0943 25.9388C35.2099 25.8732 36.2771 25.7174 37.2822 25.4541L35.762 19.6499ZM33.8006 19.9463C32.8877 19.9821 31.9749 20 31.0621 20V26C32.0534 26 33.0445 25.9806 34.0357 25.9417L33.8006 19.9463ZM48.0839 23.028L48.1274 26.0277L48.1479 26.0274L48.1684 26.0268L48.0839 23.028ZM44.4439 22.328L43.2676 25.0878L44.4439 22.328ZM41.4199 20.256L39.2764 22.3549L41.4199 20.256ZM39.3479 17.12L36.5838 18.2861L39.3479 17.12ZM38.5359 13.228L35.5362 13.2697L35.5365 13.2888L35.537 13.308L38.5359 13.228ZM39.2359 9.448L42.0091 10.5925L39.2359 9.448ZM41.2799 6.34L39.1364 4.24112L41.2799 6.34ZM44.3319 4.24L45.5297 6.9905L45.5483 6.98243L45.5667 6.97411L44.3319 4.24ZM48.0839 3.456V6.456H48.1057L48.1274 6.45568L48.0839 3.456ZM51.7239 4.156L50.5476 6.91577L51.7239 4.156ZM54.7479 6.228L52.6044 8.32687L52.6155 8.33816L52.6266 8.34932L54.7479 6.228ZM56.8199 9.336L54.0558 10.5021L54.0635 10.5203L54.0715 10.5385L56.8199 9.336ZM57.6319 13.228L54.6322 13.268L54.6325 13.2897L54.6331 13.3113L57.6319 13.228ZM56.9319 17.008L54.1745 15.8262L54.1665 15.8448L54.1588 15.8635L56.9319 17.008ZM54.8879 20.116L57.0093 22.2373L57.0204 22.2262L57.0315 22.2149L54.8879 20.116ZM51.8079 22.216L53.0057 24.9665L53.0161 24.962L53.0264 24.9574L51.8079 22.216ZM50.3239 16.672L48.2678 14.4874L48.2516 14.5027L48.2355 14.5183L50.3239 16.672ZM51.2479 14.236H48.2479V14.2633L48.2484 14.2905L51.2479 14.236ZM50.3239 11.772L48.2355 13.9257V13.9257L50.3239 11.772ZM46.0119 11.772L48.1004 13.9257V13.9257L46.0119 11.772ZM46.0119 16.672L48.1004 14.5183V14.5183L46.0119 16.672ZM48.0405 20.0283C47.1539 20.0412 46.3578 19.8826 45.6202 19.5682L43.2676 25.0878C44.8074 25.7441 46.438 26.0522 48.1274 26.0277L48.0405 20.0283ZM45.6202 19.5682C44.8491 19.2396 44.1687 18.7752 43.5635 18.1571L39.2764 22.3549C40.4259 23.5288 41.7614 24.4458 43.2676 25.0878L45.6202 19.5682ZM43.5635 18.1571C42.9587 17.5395 42.4747 16.8134 42.112 15.9539L36.5838 18.2861C37.2292 19.8159 38.1265 21.1805 39.2764 22.3549L43.5635 18.1571ZM42.112 15.9539C41.7645 15.1302 41.563 14.2046 41.5349 13.148L35.537 13.308C35.5835 15.0514 35.9233 16.7205 36.5838 18.2861L42.112 15.9539ZM41.5356 13.1863C41.5223 12.2256 41.6875 11.3715 42.0091 10.5925L36.4628 8.30354C35.8137 9.87649 35.5122 11.5424 35.5362 13.2697L41.5356 13.1863ZM42.0091 10.5925C42.3498 9.76673 42.8192 9.05598 43.4235 8.43887L39.1364 4.24112C37.986 5.41602 37.0927 6.77727 36.4628 8.30354L42.0091 10.5925ZM43.4235 8.43887C44.0286 7.82084 44.7243 7.34128 45.5297 6.9905L43.1341 1.4895C41.6249 2.14672 40.2859 3.06716 39.1364 4.24112L43.4235 8.43887ZM45.5667 6.97411C46.3135 6.63683 47.1404 6.456 48.0839 6.456V0.455999C46.3395 0.455999 44.665 0.797833 43.0972 1.50589L45.5667 6.97411ZM48.1274 6.45568C49.014 6.44283 49.8101 6.60139 50.5476 6.91577L52.9002 1.39623C51.3605 0.739935 49.7299 0.431828 48.0405 0.456315L48.1274 6.45568ZM50.5476 6.91577C51.3188 7.24444 51.9992 7.7088 52.6044 8.32687L56.8915 4.12912C55.742 2.9552 54.4065 2.03823 52.9002 1.39623L50.5476 6.91577ZM52.6266 8.34932C53.2178 8.94046 53.6955 9.648 54.0558 10.5021L59.584 8.1699C58.9364 6.63466 58.0328 5.27021 56.8693 4.10668L52.6266 8.34932ZM54.0715 10.5385C54.4221 11.3399 54.6185 12.2385 54.6322 13.268L60.6317 13.188C60.6081 11.4175 60.2631 9.72145 59.5684 8.13354L54.0715 10.5385ZM54.6331 13.3113C54.659 14.2437 54.4987 15.0697 54.1745 15.8262L59.6894 18.1898C60.3732 16.5943 60.6796 14.9003 60.6308 13.1447L54.6331 13.3113ZM54.1588 15.8635C53.818 16.6893 53.3487 17.4 52.7444 18.0171L57.0315 22.2149C58.1819 21.04 59.0752 19.6787 59.7051 18.1525L54.1588 15.8635ZM52.7666 17.9947C52.1593 18.602 51.4418 19.0958 50.5895 19.4746L53.0264 24.9574C54.5261 24.2909 55.8619 23.3847 57.0093 22.2373L52.7666 17.9947ZM50.6101 19.4655C49.8222 19.8086 48.9608 20.0021 47.9995 20.0292L48.1684 26.0268C49.8577 25.9792 51.479 25.6314 53.0057 24.9665L50.6101 19.4655ZM48.1679 20.568C49.8068 20.568 51.2644 19.9389 52.4124 18.8257L48.2355 14.5183C48.2014 14.5514 48.1792 14.5674 48.1706 14.5732C48.1623 14.5787 48.163 14.5773 48.1716 14.5737C48.1804 14.5701 48.1888 14.5678 48.1935 14.5669C48.1978 14.566 48.1906 14.568 48.1679 14.568V20.568ZM52.38 18.8566C53.7415 17.5752 54.2785 15.8893 54.2474 14.1815L48.2484 14.2905C48.2521 14.4904 48.2222 14.5609 48.2259 14.551C48.2276 14.5468 48.2335 14.5331 48.2451 14.5158C48.2566 14.4986 48.2663 14.4889 48.2678 14.4874L52.38 18.8566ZM54.2479 14.236C54.2479 12.5686 53.7344 10.9003 52.4124 9.6183L48.2355 13.9257C48.2311 13.9214 48.2226 13.912 48.2144 13.8993C48.2062 13.8868 48.205 13.8814 48.208 13.8894C48.214 13.9055 48.2479 14.0058 48.2479 14.236H54.2479ZM52.4124 9.6183C51.2644 8.50512 49.8068 7.876 48.1679 7.876V13.876C48.1906 13.876 48.1978 13.878 48.1935 13.8771C48.1888 13.8762 48.1804 13.8739 48.1716 13.8703C48.163 13.8667 48.1623 13.8653 48.1706 13.8708C48.1792 13.8766 48.2014 13.8926 48.2355 13.9257L52.4124 9.6183ZM48.1679 7.876C46.5291 7.876 45.0715 8.50512 43.9235 9.6183L48.1004 13.9257C48.1345 13.8926 48.1566 13.8766 48.1653 13.8708C48.1735 13.8653 48.1728 13.8667 48.1642 13.8703C48.1555 13.8739 48.1471 13.8762 48.1424 13.8771C48.138 13.878 48.1453 13.876 48.1679 13.876V7.876ZM43.9235 9.6183C42.6015 10.9003 42.0879 12.5686 42.0879 14.236H48.0879C48.0879 14.0058 48.1219 13.9055 48.1279 13.8894C48.1309 13.8814 48.1296 13.8868 48.1215 13.8993C48.1132 13.912 48.1048 13.9214 48.1004 13.9257L43.9235 9.6183ZM42.0879 14.236C42.0879 15.9026 42.6121 17.554 43.9235 18.8257L48.1004 14.5183C48.1019 14.5198 48.1088 14.5271 48.1165 14.5389C48.1242 14.5505 48.126 14.5565 48.1239 14.551C48.12 14.5407 48.0879 14.4506 48.0879 14.236H42.0879ZM43.9235 18.8257C45.0715 19.9389 46.5291 20.568 48.1679 20.568V14.568C48.1453 14.568 48.138 14.566 48.1424 14.5669C48.1471 14.5678 48.1555 14.5701 48.1642 14.5737C48.1728 14.5773 48.1735 14.5787 48.1653 14.5732C48.1566 14.5674 48.1345 14.5514 48.1004 14.5183L43.9235 18.8257ZM63.2569 21.88L61.9152 24.5633L61.9291 24.5702L61.943 24.577L63.2569 21.88ZM59.7849 18.604L57.2008 20.128L59.7849 18.604ZM59.1689 9.476L61.9666 10.559L61.9695 10.5515L61.9723 10.544L59.1689 9.476ZM61.0449 6.34L58.8127 4.33562L58.8013 4.34836L58.79 4.36123L61.0449 6.34ZM63.9289 4.184L62.6426 1.47372V1.47372L63.9289 4.184ZM71.9369 4.324L70.6113 7.01526L70.6276 7.02327L70.6439 7.03108L71.9369 4.324ZM74.8489 6.788L72.3459 8.44177L72.3561 8.4572L72.3664 8.4725L74.8489 6.788ZM75.6049 11.744L72.8589 10.5358L72.847 10.5629L72.8356 10.5902L75.6049 11.744ZM74.7089 12.864L72.9444 10.4378L72.9173 10.4574L72.8907 10.4777L74.7089 12.864ZM71.7409 13.032L70.2839 15.6545L70.3136 15.6709L70.3436 15.6868L71.7409 13.032ZM70.8729 12.36L68.5303 14.2341L68.5993 14.3204L68.6745 14.4014L70.8729 12.36ZM70.1729 11.52L72.4399 9.55521L72.4399 9.55521L70.1729 11.52ZM69.2769 10.82L70.6741 8.16525V8.16524L69.2769 10.82ZM66.2249 10.988L67.7972 13.543L66.2249 10.988ZM65.0489 12.22L62.4441 10.7316L62.4352 10.7473L62.4264 10.7631L65.0489 12.22ZM65.3849 16.504L62.9183 18.2116L62.9329 18.2328L62.9479 18.2536L65.3849 16.504ZM69.3609 17.26L68.0192 14.5767L67.9961 14.5883L67.9732 14.6002L69.3609 17.26ZM70.4809 16.504L72.5327 18.6926L72.537 18.6886L70.4809 16.504ZM71.4889 15.72L69.9454 13.1475L69.9159 13.1652L69.8869 13.1835L71.4889 15.72ZM74.7649 16.196L72.3748 18.0092L72.3943 18.0349L72.4144 18.0602L74.7649 16.196ZM75.2969 18.184L72.3104 17.8996L72.3098 17.9061L75.2969 18.184ZM74.2329 20.48L71.9716 18.5086L71.957 18.5253L71.9427 18.5422L74.2329 20.48ZM71.7129 22.272L72.8946 25.0294L72.9063 25.0244L72.9179 25.0194L71.7129 22.272ZM68.1009 19.944C66.739 19.944 65.5798 19.6746 64.5708 19.183L61.943 24.577C63.846 25.5041 65.9161 25.944 68.1009 25.944V19.944ZM64.5985 19.1967C63.6803 18.7376 62.9458 18.0581 62.369 17.08L57.2008 20.128C58.3413 22.0619 59.9215 23.5664 61.9152 24.5633L64.5985 19.1967ZM62.369 17.08C61.8511 16.202 61.4969 14.9453 61.4969 13.144H55.4969C55.4969 15.7107 56.0013 18.094 57.2008 20.128L62.369 17.08ZM61.4969 13.144C61.4969 12.2121 61.6573 11.3579 61.9666 10.559L56.3712 8.39302C55.7844 9.90881 55.4969 11.4999 55.4969 13.144H61.4969ZM61.9723 10.544C62.2976 9.69025 62.7407 8.95578 63.2998 8.31877L58.79 4.36123C57.7437 5.55356 56.9362 6.90975 56.3654 8.40801L61.9723 10.544ZM63.277 8.34438C63.8352 7.72277 64.4758 7.24513 65.2151 6.89428L62.6426 1.47372C61.1793 2.1682 59.8972 3.1279 58.8127 4.33562L63.277 8.34438ZM65.2151 6.89428C65.8804 6.57856 66.6491 6.4 67.5689 6.4V0.399999C65.838 0.399999 64.18 0.744103 62.6426 1.47372L65.2151 6.89428ZM67.5689 6.4C68.8578 6.4 69.8448 6.63771 70.6113 7.01526L73.2624 1.63273C71.5276 0.77829 69.6026 0.399999 67.5689 0.399999V6.4ZM70.6439 7.03108C71.4568 7.41934 71.9867 7.89813 72.3459 8.44177L77.3519 5.13423C76.3297 3.5872 74.9182 2.42332 73.2298 1.61691L70.6439 7.03108ZM72.3664 8.4725C72.7316 9.01055 72.9129 9.58813 72.9129 10.288H78.9129C78.9129 8.41186 78.3849 6.65611 77.3313 5.1035L72.3664 8.4725ZM72.9129 10.288C72.9129 10.3711 72.8987 10.4453 72.8589 10.5358L78.3508 12.9522C78.7217 12.1093 78.9129 11.2129 78.9129 10.288H72.9129ZM72.8356 10.5902C72.8485 10.5593 72.8698 10.5215 72.8983 10.4859C72.9262 10.451 72.9466 10.4361 72.9444 10.4378L76.4734 15.2902C77.3078 14.6833 77.9656 13.8782 78.3741 12.8978L72.8356 10.5902ZM72.8907 10.4777C73.0123 10.3851 73.1244 10.339 73.1919 10.3194C73.2528 10.3017 73.254 10.312 73.1689 10.312V16.312C74.27 16.312 75.479 16.0488 76.527 15.2503L72.8907 10.4777ZM73.1689 10.312C73.0971 10.312 73.0425 10.3092 73.0035 10.3058C72.9644 10.3024 72.9445 10.2987 72.9411 10.2981C72.9378 10.2974 72.9547 10.3005 72.9879 10.3117C73.0213 10.3229 73.0733 10.3431 73.1381 10.3772L70.3436 15.6868C71.2889 16.1843 72.3046 16.312 73.1689 16.312V10.312ZM73.1978 10.4095C73.1165 10.3644 73.0828 10.3311 73.0713 10.3186L68.6745 14.4014C69.1483 14.9116 69.6932 15.3263 70.2839 15.6545L73.1978 10.4095ZM73.2155 10.4859C72.9661 10.1742 72.7075 9.86396 72.4399 9.55521L67.9058 13.4848C68.1236 13.736 68.3316 13.9858 68.5303 14.2341L73.2155 10.4859ZM72.4399 9.55521C71.9335 8.97082 71.332 8.5115 70.6741 8.16525L67.8796 13.4748C67.9077 13.4895 67.9193 13.4986 67.9199 13.4991C67.9204 13.4995 67.919 13.4983 67.9161 13.4956C67.9132 13.4929 67.9097 13.4892 67.9058 13.4848L72.4399 9.55521ZM70.6741 8.16524C69.7183 7.6622 68.6858 7.54 67.8209 7.54V13.54C67.8997 13.54 67.9605 13.543 68.005 13.5468C68.0497 13.5506 68.0738 13.5548 68.0803 13.556C68.0869 13.5573 68.0712 13.5547 68.0377 13.5435C68.004 13.5323 67.9491 13.5113 67.8796 13.4748L70.6741 8.16524ZM67.8209 7.54C66.6961 7.54 65.6184 7.83868 64.6526 8.43303L67.7972 13.543C67.8049 13.5382 67.8079 13.537 67.8067 13.5376C67.8054 13.5382 67.8024 13.5393 67.7986 13.5404C67.7949 13.5414 67.7934 13.5415 67.7954 13.5412C67.7975 13.541 67.8056 13.54 67.8209 13.54V7.54ZM64.6526 8.43302C63.7149 9.01004 62.9777 9.79795 62.4441 10.7316L67.6536 13.7084C67.7174 13.5967 67.7642 13.5633 67.7972 13.543L64.6526 8.43302ZM62.4264 10.7631C61.8674 11.7693 61.6289 12.8618 61.6289 13.956H67.6289C67.6289 13.7436 67.6704 13.6787 67.6713 13.6769L62.4264 10.7631ZM61.6289 13.956C61.6289 15.4754 62.0335 16.9336 62.9183 18.2116L67.8515 14.7964C67.7282 14.6184 67.6289 14.3779 67.6289 13.956H61.6289ZM62.9479 18.2536C64.0741 19.8223 65.7493 20.596 67.5969 20.596V14.596C67.55 14.596 67.5387 14.5915 67.555 14.5951C67.5728 14.5989 67.6101 14.6094 67.6579 14.6329C67.7062 14.6568 67.7488 14.6859 67.7819 14.7147C67.8142 14.7426 67.826 14.7602 67.8218 14.7544L62.9479 18.2536ZM67.5969 20.596C68.5889 20.596 69.7205 20.4561 70.7486 19.9198L67.9732 14.6002C68.0713 14.5491 68.1076 14.5515 68.0365 14.565C67.9663 14.5784 67.8259 14.596 67.5969 14.596V20.596ZM70.7025 19.9433C71.3543 19.6174 71.9814 19.2094 72.5327 18.6926L68.4291 14.3154C68.383 14.3586 68.2635 14.4546 68.0192 14.5767L70.7025 19.9433ZM72.537 18.6886C72.7199 18.5164 72.9046 18.3741 73.0909 18.2565L69.8869 13.1835C69.3638 13.5139 68.8765 13.8943 68.4248 14.3194L72.537 18.6886ZM73.0324 18.2925C72.9228 18.3582 72.84 18.3819 72.813 18.3883C72.7892 18.3939 72.818 18.384 72.9169 18.384V12.384C71.9683 12.384 70.9143 12.5662 69.9454 13.1475L73.0324 18.2925ZM72.9169 18.384C73.0016 18.384 72.9346 18.398 72.7881 18.3336C72.6238 18.2614 72.4748 18.141 72.3748 18.0092L77.155 14.3828C76.0565 12.9349 74.4574 12.384 72.9169 12.384V18.384ZM72.4144 18.0602C72.3981 18.0397 72.3787 18.0108 72.3605 17.9747C72.3423 17.9385 72.3297 17.9038 72.3218 17.8745C72.3055 17.8136 72.3188 17.8114 72.3104 17.8996L78.2834 18.4684C78.4204 17.0296 78.0944 15.5663 77.1154 14.3318L72.4144 18.0602ZM72.3098 17.9061C72.3042 17.966 72.2765 18.1588 71.9716 18.5086L76.4942 22.4514C77.4585 21.3452 78.1402 20.0074 78.284 18.4619L72.3098 17.9061ZM71.9427 18.5422C71.6795 18.8533 71.2431 19.2022 70.5079 19.5246L72.9179 25.0194C74.3106 24.4085 75.5543 23.5627 76.523 22.4178L71.9427 18.5422ZM70.5311 19.5146C69.9255 19.7741 69.1362 19.944 68.1009 19.944V25.944C69.7909 25.944 71.4096 25.6659 72.8946 25.0294L70.5311 19.5146Z" fill="#C3DBFF" mask="url(#path-1-outside-1_2636_3737)"/>
</svg>
