<svg width="74" height="26" viewBox="0 0 74 26" fill="none" xmlns="http://www.w3.org/2000/svg">
<path d="M1.97962 24.936C1.53162 24.7653 1.21162 24.456 1.01962 24.008C0.80629 23.5387 0.816956 23.0373 1.05162 22.504L10.4916 1.576C10.6836 1.14933 10.897 0.829332 11.1316 0.615999C11.3663 0.402666 11.7823 0.296 12.3796 0.296C12.913 0.296 13.3396 0.402666 13.6596 0.615999C13.9796 0.807999 14.161 1.096 14.2036 1.48L17.5316 22.696C17.617 23.3573 17.5423 23.8907 17.3076 24.296C17.073 24.68 16.689 24.9147 16.1556 25C15.5583 25.0853 15.0676 24.9787 14.6836 24.68C14.321 24.36 14.0863 23.848 13.9796 23.144L11.7076 5.128L12.3156 5.192L4.50762 23.752C4.27296 24.3067 3.89962 24.68 3.38762 24.872C2.87562 25.064 2.40629 25.0853 1.97962 24.936ZM6.33162 15.624L7.64362 12.584H14.0116L14.4276 15.624H6.33162ZM20.9754 25C20.3994 25 19.962 24.8293 19.6634 24.488C19.386 24.1253 19.2794 23.6773 19.3434 23.144L21.5834 1.864C21.626 1.30933 21.8287 0.914666 22.1914 0.679998C22.5754 0.423999 23.0447 0.296 23.5994 0.296C24.0687 0.296 24.4954 0.434666 24.8794 0.711998C25.2634 0.967999 25.4127 1.50133 25.3274 2.312L23.2794 21.544H32.7514C33.3274 21.544 33.8074 21.7147 34.1914 22.056C34.5754 22.3973 34.7674 22.792 34.7674 23.24C34.7674 23.7093 34.6074 24.1253 34.2874 24.488C33.9887 24.8293 33.5514 25 32.9754 25H20.9754ZM44.1161 25.192C42.4948 25.192 41.0868 24.68 39.8921 23.656C38.7188 22.632 37.8548 21.2133 37.3001 19.4C36.7455 17.5867 36.5855 15.496 36.8201 13.128C37.0975 10.504 37.6735 8.22133 38.5481 6.28C39.4228 4.31733 40.5535 2.80267 41.9401 1.736C43.3268 0.647998 44.9055 0.103998 46.6761 0.103998C48.3188 0.103998 49.7268 0.615999 50.9001 1.64C52.0735 2.64267 52.9375 4.05067 53.4921 5.864C54.0468 7.67733 54.2068 9.768 53.9721 12.136C53.6948 14.76 53.1188 17.0533 52.2441 19.016C51.3695 20.9573 50.2388 22.472 48.8521 23.56C47.4868 24.648 45.9081 25.192 44.1161 25.192ZM44.4361 21.768C45.4601 21.768 46.3668 21.3627 47.1561 20.552C47.9668 19.7413 48.6281 18.6213 49.1401 17.192C49.6735 15.7413 50.0255 14.056 50.1961 12.136C50.3668 10.408 50.3135 8.904 50.0361 7.624C49.7588 6.32267 49.3001 5.32 48.6601 4.616C48.0415 3.89067 47.2735 3.528 46.3561 3.528C45.3535 3.528 44.4468 3.93333 43.6361 4.744C42.8255 5.53333 42.1535 6.65333 41.6201 8.104C41.1081 9.53333 40.7668 11.208 40.5961 13.128C40.4255 14.856 40.4788 16.3707 40.7561 17.672C41.0335 18.952 41.4815 19.9547 42.1001 20.68C42.7401 21.4053 43.5188 21.768 44.4361 21.768ZM63.1136 25.192C61.1936 25.192 59.647 24.648 58.4736 23.56C57.3003 22.472 56.5216 20.936 56.1376 18.952C55.7536 16.968 55.7536 14.6427 56.1376 11.976C56.5216 9.39467 57.1723 7.22933 58.0896 5.48C59.007 3.70933 60.191 2.376 61.6416 1.48C63.1136 0.562665 64.8416 0.103998 66.8256 0.103998C67.5936 0.103998 68.3723 0.199998 69.1616 0.391998C69.9723 0.562665 70.6976 0.786666 71.3376 1.064C71.9776 1.32 72.4576 1.56533 72.7776 1.8C73.1403 2.056 73.3963 2.44 73.5456 2.952C73.7163 3.464 73.6416 4.008 73.3216 4.584C73.023 5.11733 72.6496 5.42667 72.2016 5.512C71.775 5.576 71.3483 5.46933 70.9216 5.192C70.6656 5 70.3243 4.776 69.8976 4.52C69.4923 4.24266 69.0443 4.008 68.5536 3.816C68.063 3.624 67.5723 3.528 67.0816 3.528C65.7163 3.528 64.543 3.88 63.5616 4.584C62.5803 5.288 61.791 6.312 61.1936 7.656C60.6176 8.97867 60.2123 10.568 59.9776 12.424C59.7216 14.536 59.6683 16.296 59.8176 17.704C59.9883 19.0907 60.351 20.1253 60.9056 20.808C61.4816 21.4907 62.239 21.832 63.1776 21.832C64.159 21.832 65.0123 21.6507 65.7376 21.288C66.463 20.9253 67.0816 20.4667 67.5936 19.912C68.1056 19.336 68.5003 18.7387 68.7776 18.12C69.0123 17.6293 69.3323 17.2987 69.7376 17.128C70.1643 16.9573 70.6123 17 71.0816 17.256C71.551 17.4907 71.8816 17.9067 72.0736 18.504C72.2656 19.08 72.1483 19.7733 71.7216 20.584C71.295 21.352 70.6656 22.088 69.8336 22.792C69.023 23.496 68.0416 24.072 66.8896 24.52C65.759 24.968 64.5003 25.192 63.1136 25.192Z" fill="#408CFF"/>
</svg>
