<svg width="16" height="16" viewBox="0 0 16 16" fill="none" xmlns="http://www.w3.org/2000/svg">
<path d="M8.00009 5.00276V11.7188C8.00009 12.0441 7.69439 12.2827 7.37882 12.2039L4.11049 11.3868C3.66533 11.2755 3.35303 10.8755 3.35303 10.4166V4.52896C3.35303 4.02542 3.76124 3.6172 4.2648 3.61719C4.6533 3.61718 5.31245 3.7937 6.0387 4.05068C6.74241 4.29968 7.43778 4.59752 7.86677 4.78904C7.94506 4.82399 8.00009 4.90419 8.00009 5.00276Z" stroke="#A9ADB9"/>
<path d="M12.6471 4.52895V10.4166C12.6471 10.8755 12.3348 11.2755 11.8896 11.3868L8.62127 12.2038C8.30569 12.2827 8 12.0441 8 11.7188V5.01636C8 4.91568 8.05773 4.83223 8.14104 4.79698C8.59342 4.60555 9.32637 4.30533 10.0435 4.05383C10.4023 3.92798 10.7509 3.81655 11.0549 3.73715C11.3687 3.65515 11.5989 3.61719 11.7353 3.61719C12.2388 3.61719 12.6471 4.0254 12.6471 4.52895Z" stroke="#A9ADB9"/>
</svg>
