<svg width="12" height="12" viewBox="0 0 12 12" fill="none" xmlns="http://www.w3.org/2000/svg">
<rect width="12" height="12" rx="6" fill="#FF5A5F"/>
<path fill-rule="evenodd" clip-rule="evenodd" d="M3.52535 7.76799C3.33009 7.96326 3.33009 8.27984 3.52535 8.4751C3.72062 8.67036 4.0372 8.67036 4.23246 8.4751L6 6.70756L7.76799 8.47555C7.96326 8.67082 8.27984 8.67082 8.4751 8.47555C8.67036 8.28029 8.67036 7.96371 8.4751 7.76845L6.70711 6.00045L8.4751 4.23246C8.67036 4.0372 8.67036 3.72061 8.4751 3.52535C8.27984 3.33009 7.96326 3.33009 7.76799 3.52535L6 5.29335L4.23246 3.52581C4.0372 3.33054 3.72061 3.33054 3.52535 3.52581C3.33009 3.72107 3.33009 4.03765 3.52535 4.23291L5.29289 6.00045L3.52535 7.76799Z" fill="white"/>
</svg>
