<svg width="36" height="36" viewBox="0 0 36 36" fill="none" xmlns="http://www.w3.org/2000/svg">
<path fill-rule="evenodd" clip-rule="evenodd" d="M25.1471 27.75C26.8039 27.75 28.1962 26.3625 27.5964 24.818C26.2253 21.287 22.4467 18.75 18.0001 18.75C13.5534 18.75 9.77478 21.287 8.4037 24.818C7.80397 26.3625 9.19621 27.75 10.8531 27.75H25.1471Z" fill="white"/>
<rect width="1.5" height="13.5" rx="0.75" transform="matrix(-1 0 0 1 15 9)" fill="white"/>
<path d="M13.5 9.45692C13.5 9.12802 13.7141 8.83774 14.0313 8.75082C14.6556 8.57978 15.7067 8.3192 16.5 8.26269C18.9069 8.09125 20.0931 9.71622 22.5 9.54478C23.1251 9.50026 23.9102 9.32903 24.5205 9.17474C25.0101 9.05095 25.5 9.41557 25.5 9.92058V16.0431C25.5 16.372 25.2859 16.6623 24.9687 16.7492C24.3444 16.9202 23.2933 17.1808 22.5 17.2373C20.0931 17.4087 18.9069 15.7838 16.5 15.9552C15.8749 15.9997 15.0898 16.171 14.4795 16.3253C13.9899 16.449 13.5 16.0844 13.5 15.5794V9.45692Z" fill="white"/>
</svg>
