<svg width="25" height="25" viewBox="0 0 25 25" fill="none" xmlns="http://www.w3.org/2000/svg">
<path d="M23.06 12.75C23.06 11.97 22.99 11.22 22.86 10.5H12.5V14.755H18.42C18.165 16.13 17.39 17.295 16.225 18.075V20.835H19.78C21.86 18.92 23.06 16.1 23.06 12.75Z" fill="#4285F4"/>
<path d="M12.5 23.4998C15.47 23.4998 17.96 22.5148 19.78 20.8348L16.225 18.0748C15.24 18.7348 13.98 19.1248 12.5 19.1248C9.63501 19.1248 7.21001 17.1898 6.34501 14.5898H2.67001V17.4398C4.48001 21.0348 8.20001 23.4998 12.5 23.4998Z" fill="#34A853"/>
<path d="M6.345 14.5901C6.125 13.9301 6 13.2251 6 12.5001C6 11.7751 6.125 11.0701 6.345 10.4101V7.56006H2.67C1.9 9.09292 1.49932 10.7847 1.5 12.5001C1.5 14.2751 1.925 15.9551 2.67 17.4401L6.345 14.5901Z" fill="#FBBC05"/>
<path d="M12.5 5.875C14.115 5.875 15.565 6.43 16.705 7.52L19.86 4.365C17.955 2.59 15.465 1.5 12.5 1.5C8.20001 1.5 4.48001 3.965 2.67001 7.56L6.34501 10.41C7.21001 7.81 9.63501 5.875 12.5 5.875Z" fill="#EA4335"/>
</svg>
