<svg width="58" height="58" viewBox="0 0 58 58" fill="none" xmlns="http://www.w3.org/2000/svg">
<path d="M2.47609 0.932007C1.37152 0.932007 0.476097 1.82744 0.476097 2.93201V56.0078C0.476097 57.1123 1.37153 58.0078 2.4761 58.0078H55.5519C56.6564 58.0078 57.5519 57.1123 57.5519 56.0078V2.932C57.5519 1.82743 56.6564 0.932007 55.5519 0.932007H2.47609ZM7.61057 10.0665C7.61057 8.96191 8.506 8.06648 9.61057 8.06648H48.4174C49.522 8.06648 50.4174 8.96191 50.4174 10.0665V24.6415C50.4174 26.4233 48.2631 27.3156 47.0032 26.0557L44.6971 23.7496C43.9161 22.9686 42.6498 22.9686 41.8687 23.7496L37.5627 28.0557C36.7816 28.8367 36.7816 30.1031 37.5627 30.8841L49.8316 43.153C50.2067 43.5281 50.4174 44.0368 50.4174 44.5673V48.8733C50.4174 49.9779 49.522 50.8733 48.4174 50.8733H44.1113C43.5809 50.8733 43.0722 50.6626 42.6971 50.2875L16.1593 23.7496C15.3782 22.9686 14.1119 22.9686 13.3308 23.7496L11.0248 26.0557C9.76485 27.3156 7.61057 26.4233 7.61057 24.6415V10.0665Z" fill="#A9ADB9"/>
</svg>
