<svg width="36" height="36" viewBox="0 0 36 36" fill="none" xmlns="http://www.w3.org/2000/svg">
<path fill-rule="evenodd" clip-rule="evenodd" d="M14 13.9841H22V8.01587C22 5.80673 20.2091 4.01587 18 4.01587C15.7909 4.01587 14 5.80673 14 8.01587V13.9841ZM12 13.9841H10C8.89543 13.9841 8 14.8796 8 15.9841V27.9841C8 29.0887 8.89543 29.9841 10 29.9841H26C27.1046 29.9841 28 29.0887 28 27.9841V15.9841C28 14.8796 27.1046 13.9841 26 13.9841H24V8.01587C24 4.70216 21.3137 2.01587 18 2.01587C14.6863 2.01587 12 4.70216 12 8.01587V13.9841ZM20 21.9844C20 23.0889 19.1046 23.9844 18 23.9844C16.8954 23.9844 16 23.0889 16 21.9844C16 20.8798 16.8954 19.9844 18 19.9844C19.1046 19.9844 20 20.8798 20 21.9844Z" fill="#A9ADB9"/>
</svg>
