<svg width="19" height="26" viewBox="0 0 19 26" fill="none" xmlns="http://www.w3.org/2000/svg">
<path fill-rule="evenodd" clip-rule="evenodd" d="M13.3335 10V6C13.3335 3.79086 11.5426 2 9.3335 2C7.12436 2 5.3335 3.79086 5.3335 6V10H13.3335ZM3.3335 10V6C3.3335 2.68629 6.01979 0 9.3335 0C12.6472 0 15.3335 2.68629 15.3335 6V10H16.3335C17.4381 10 18.3335 10.8954 18.3335 12V24C18.3335 25.1046 17.4381 26 16.3335 26H2.3335C1.22893 26 0.333496 25.1046 0.333496 24V12C0.333496 10.8954 1.22893 10 2.3335 10H3.3335Z" fill="#A9ADB9"/>
</svg>
