<svg width="17" height="18" viewBox="0 0 17 18" fill="none" xmlns="http://www.w3.org/2000/svg">
<path fill-rule="evenodd" clip-rule="evenodd" d="M4.91797 0C3.8134 0 2.91797 0.895429 2.91797 2V9.30755C2.91797 10.4121 3.8134 11.3076 4.91797 11.3076H11.5846C12.6892 11.3076 13.5846 10.4121 13.5846 9.30755V2C13.5846 0.895431 12.6892 0 11.5846 0H4.91797ZM5.25293 1.61535C4.70064 1.61535 4.25293 2.06306 4.25293 2.61535V10.3075C4.25293 10.8598 4.70064 11.3075 5.25293 11.3075H11.2529C11.8052 11.3075 12.2529 10.8598 12.2529 10.3075V2.61535C12.2529 2.06306 11.8052 1.61535 11.2529 1.61535H5.25293Z" fill="#D9D9D9"/>
<path fill-rule="evenodd" clip-rule="evenodd" d="M0.25 7.5C0.25 6.67157 0.921573 6 1.75 6H14.75C15.5784 6 16.25 6.67157 16.25 7.5V16.4999C16.25 17.3284 15.5784 17.9999 14.75 17.9999H1.75C0.921573 17.9999 0.25 17.3284 0.25 16.4999V7.5ZM9.04231 10.8807C9.25856 10.6728 9.39314 10.3805 9.39314 10.0568V9.54258C9.39314 8.9114 8.88146 8.39973 8.25028 8.39973C7.6191 8.39973 7.10742 8.9114 7.10742 9.54258V10.0568C7.10742 10.3805 7.242 10.6728 7.45825 10.8807L7.33595 11.48C7.2179 12.0585 7.65991 12.5998 8.25028 12.5998C8.84065 12.5998 9.28266 12.0585 9.16461 11.48L9.04231 10.8807Z" fill="#D9D9D9"/>
</svg>
