<svg width="36" height="36" viewBox="0 0 36 36" fill="none" xmlns="http://www.w3.org/2000/svg">
<path d="M8.30191 15.2643C8.14205 14.0654 9.07479 13 10.2844 13H25.7156C26.9252 13 27.858 14.0654 27.6981 15.2643L26.2314 26.2643C26.0989 27.2579 25.2514 28 24.249 28H11.751C10.7486 28 9.90106 27.2579 9.76858 26.2643L8.30191 15.2643Z" fill="#98BFFA"/>
<path d="M18 8C19.9542 8.00005 21.5811 9.40144 21.9305 11.2541C22.0073 11.6611 21.6642 12 21.25 12C20.8358 12 20.5112 11.6568 20.3889 11.261C20.0738 10.2411 19.1234 9.50005 18 9.5C16.8765 9.5 15.9261 10.2411 15.611 11.261C15.4887 11.6568 15.1642 12 14.75 12C14.3358 12 13.9926 11.6611 14.0694 11.2541C14.4188 9.4014 16.0458 8 18 8Z" fill="#408CFF"/>
</svg>
