<svg width="36" height="36" viewBox="0 0 36 36" fill="none" xmlns="http://www.w3.org/2000/svg">
<path d="M9.76858 26.2643C9.90106 27.2579 10.7486 28 11.751 28H24.249C25.2514 28 26.0989 27.2579 26.2314 26.2643L27.6981 15.2643C27.858 14.0654 26.9252 13 25.7156 13H10.2844C9.07479 13 8.14205 14.0654 8.30191 15.2643L9.76858 26.2643Z" fill="white"/>
<path d="M18 8C19.9542 8.00004 21.5811 9.40143 21.9306 11.2541C22.0073 11.6611 21.6642 12 21.25 12V12C20.8358 12 20.5113 11.6568 20.389 11.261C20.0738 10.2411 19.1234 9.50004 18 9.5C16.8765 9.5 15.9262 10.2411 15.611 11.261C15.4887 11.6568 15.1642 12 14.75 12V12C14.3358 12 13.9927 11.6611 14.0694 11.2541C14.4189 9.4014 16.0458 8 18 8Z" fill="white"/>
</svg>
