<svg width="36" height="36" viewBox="0 0 36 36" fill="none" xmlns="http://www.w3.org/2000/svg">
<circle cx="13.2754" cy="14.625" r="3.375" fill="#98BFFA"/>
<circle cx="22.7246" cy="14.625" r="3.375" fill="#408CFF"/>
<path d="M13.2752 19.3496C15.9662 19.3496 17.4652 20.4092 18.3002 21.5896C19.3766 23.1114 17.8392 24.7496 15.9752 24.7496H10.5752C8.71124 24.7496 7.17379 23.1114 8.2502 21.5896C9.08518 20.4092 10.5842 19.3496 13.2752 19.3496Z" fill="#98BFFA"/>
<path d="M22.7254 19.3496C25.4164 19.3496 26.9154 20.4092 27.7504 21.5896C28.8268 23.1114 27.2894 24.7496 25.4254 24.7496H20.0254C18.1614 24.7496 16.624 23.1114 17.7004 21.5896C18.5354 20.4092 20.0344 19.3496 22.7254 19.3496Z" fill="#408CFF"/>
</svg>
