<svg width="128" height="128" viewBox="0 0 128 128" fill="none" xmlns="http://www.w3.org/2000/svg">
<circle cx="64" cy="64" r="64" fill="#D5D8E3"/>
<path fill-rule="evenodd" clip-rule="evenodd" d="M20.4243 110.874C26.5752 105.438 34.6792 101.177 43.974 98.6336C32.0324 91.7137 24.0001 78.7949 24.0001 64C24.0001 41.9086 41.9087 24 64.0001 24C86.0915 24 104 41.9086 104 64C104 78.7949 95.9678 91.7137 84.0262 98.6336C93.321 101.177 101.425 105.438 107.576 110.874C96.1503 121.501 80.8342 128 64.0001 128C47.166 128 31.8499 121.501 20.4243 110.874Z" fill="#FF5656"/>
<path d="M84.9466 51.5019C85.9032 50.9496 87.1225 51.2796 87.6748 52.2361V52.2361C88.2271 53.1927 87.8993 54.4159 86.9428 54.9682L74.492 62.1566C73.5354 62.7089 72.3122 62.3812 71.7599 61.4246V61.4246C71.2077 60.468 71.5345 59.2454 72.4911 58.6931C76.8771 56.1608 82.2452 53.0615 84.9466 51.5019Z" fill="#D5D8E3"/>
<path d="M41.4582 55.0211C40.5016 54.4688 40.1777 53.2478 40.73 52.2913V52.2913C41.2823 51.3347 42.5054 51.0069 43.462 51.5592L55.9128 58.7477C56.8694 59.2999 57.1971 60.5231 56.6448 61.4797V61.4797C56.0926 62.4363 54.8703 62.7646 53.9137 62.2123C49.5276 59.68 44.1596 56.5807 41.4582 55.0211Z" fill="#D5D8E3"/>
</svg>
