<svg width="65" height="65" viewBox="0 0 65 65" fill="none" xmlns="http://www.w3.org/2000/svg">
<path fill-rule="evenodd" clip-rule="evenodd" d="M20.5 8.5C18.2909 8.5 16.5 10.2909 16.5 12.5V16.5H14.5C13.3954 16.5 12.5 17.3954 12.5 18.5C12.5 19.6046 13.3954 20.5 14.5 20.5H16.5V24.5H14.5C13.3954 24.5 12.5 25.3954 12.5 26.5C12.5 27.6046 13.3954 28.5 14.5 28.5H16.5V52.5C16.5 54.7091 18.2909 56.5 20.5 56.5H48.5C50.7091 56.5 52.5 54.7091 52.5 52.5V12.5C52.5 10.2909 50.7091 8.5 48.5 8.5H20.5ZM26.5 16.5C25.3954 16.5 24.5 17.3954 24.5 18.5C24.5 19.6046 25.3954 20.5 26.5 20.5H42.5C43.6046 20.5 44.5 19.6046 44.5 18.5C44.5 17.3954 43.6046 16.5 42.5 16.5H26.5Z" fill="#CACED9"/>
</svg>
