<svg width="30" height="15" viewBox="0 0 30 15" fill="none" xmlns="http://www.w3.org/2000/svg">
<path d="M1 13.0125C1.3192 13.0125 1.4791 12.8911 1.68071 12.6354C2.26177 11.8983 2.64505 10.9914 3.03752 10.1471C3.76405 8.58421 4.42771 6.97972 5.2958 5.48795C6.14327 4.03163 7.12447 2.4038 8.55905 1.44741C8.85468 1.25032 9.58748 0.820919 9.95266 1.08176C10.4258 1.4197 10.1632 2.5278 10.0745 2.9399C9.85738 3.94929 9.47855 4.9234 9.12477 5.89039C8.65689 7.16928 8.17954 8.44465 7.71277 9.72396C7.22278 11.0669 6.70916 12.4013 6.25707 13.7576" stroke="#408CFF" stroke-width="1.5" stroke-linecap="round"/>
<path d="M4.10449 8.16932C5.47817 8.16932 6.85184 8.16932 8.22552 8.16932C8.77426 8.16932 9.32338 8.17503 9.87209 8.16932C10.0726 8.16723 10.2572 8.15741 10.4286 8.04513C10.6749 7.88375 10.7594 7.44122 11.0587 7.34143" stroke="#408CFF" stroke-width="1.5" stroke-linecap="round"/>
<path d="M13.9977 1.54626C13.9745 1.55399 13.9893 1.54715 13.9701 1.59686C13.9152 1.73896 13.8635 1.88228 13.8091 2.0246C13.4959 2.84471 13.1814 3.66315 12.8985 4.49446C12.3238 6.18312 11.714 7.90164 11.3554 9.65264C11.2029 10.397 11.105 11.1661 11.1001 11.927C11.0972 12.3796 11.0614 12.8576 11.1231 13.3068C11.1667 13.6244 11.377 13.592 11.6497 13.592C12.3522 13.592 13.0294 13.5829 13.7263 13.477C14.3278 13.3856 14.9154 13.2433 15.4994 13.0746C15.6384 13.0344 15.7813 12.9656 15.8604 12.8469" stroke="#408CFF" stroke-width="1.5" stroke-linecap="round"/>
<path d="M17.0197 13.4264C17.0197 11.6433 16.9197 9.83074 17.0496 8.05206C17.1029 7.32201 17.2958 6.61776 17.475 5.91105C17.6244 5.32167 17.8087 4.79766 18.1281 4.27828C18.6078 3.49825 19.2993 2.62078 20.2691 2.48223C20.5808 2.4377 21.0266 2.39467 21.3201 2.53052C21.8993 2.79871 22.039 3.58635 22.1204 4.1426C22.2683 5.15473 22.2138 6.21629 22.0192 7.21727C21.8202 8.24052 21.6007 9.29621 21.2235 10.2712C20.8092 11.3423 20.2204 12.2972 19.2596 12.9458C18.9508 13.1542 18.6991 13.2194 18.3351 13.2194C17.9256 13.2194 17.6406 13.2802 17.6406 12.8055" stroke="#408CFF" stroke-width="1.5" stroke-linecap="round"/>
<path d="M28.6513 2.7053C27.7988 2.7053 26.9426 2.62119 26.0872 2.66621C25.8777 2.67723 25.7196 2.75336 25.5789 2.90997C25.1454 3.39278 24.8822 3.99591 24.6545 4.59564C23.927 6.51093 23.381 8.61074 23.3551 10.6691C23.3464 11.3649 23.194 12.3834 23.6426 12.9895C24.1409 13.6626 25.2764 13.5176 25.9929 13.3666C27.127 13.1276 28.2742 12.7732 28.8169 11.6879" stroke="#408CFF" stroke-width="1.5" stroke-linecap="round"/>
</svg>
