<svg width="16" height="16" viewBox="0 0 16 16" fill="none" xmlns="http://www.w3.org/2000/svg">
<path d="M8 1C8.91925 1 9.82951 1.18106 10.6788 1.53284C11.5281 1.88463 12.2997 2.40024 12.9497 3.05025C13.5998 3.70026 14.1154 4.47194 14.4672 5.32122C14.8189 6.1705 15 7.08075 15 8C15 8.91925 14.8189 9.82951 14.4672 10.6788C14.1154 11.5281 13.5998 12.2997 12.9497 12.9497C12.2997 13.5998 11.5281 14.1154 10.6788 14.4672C9.8295 14.8189 8.91925 15 8 15C7.08074 15 6.17049 14.8189 5.32121 14.4672C4.47193 14.1154 3.70026 13.5998 3.05025 12.9497C2.40024 12.2997 1.88462 11.5281 1.53284 10.6788C1.18106 9.8295 1 8.91925 1 8C1 7.08074 1.18106 6.17049 1.53284 5.32121C1.88463 4.47193 2.40024 3.70026 3.05026 3.05025C3.70027 2.40024 4.47194 1.88462 5.32122 1.53284C6.1705 1.18106 7.08075 0.999999 8 1L8 1Z" stroke="#408CFF" stroke-opacity="0.25" stroke-width="2" stroke-linecap="round"/>
<path d="M15 8C15 9.38447 14.5895 10.7378 13.8203 11.889C13.0511 13.0401 11.9579 13.9373 10.6788 14.4672C9.3997 14.997 7.99223 15.1356 6.63437 14.8655C5.2765 14.5954 4.02922 13.9287 3.05025 12.9497C2.07128 11.9708 1.4046 10.7235 1.1345 9.36563C0.864406 8.00777 1.00303 6.6003 1.53284 5.32122C2.06266 4.04213 2.95986 2.94888 4.11101 2.17971C5.26215 1.41054 6.61553 1 8 1" stroke="#408CFF" stroke-width="2" stroke-linecap="round"/>
</svg>
