<svg width="52" height="24" viewBox="0 0 52 24" fill="none" xmlns="http://www.w3.org/2000/svg">
<rect width="52" height="24" rx="12" fill="#FF5A5F" fill-opacity="0.1"/>
<rect x="6" y="6" width="12" height="12" rx="6" fill="#FF5A5F"/>
<path d="M13.7684 9.52529C13.9637 9.33015 14.2802 9.33007 14.4755 9.52529C14.6704 9.72054 14.6705 10.0372 14.4755 10.2323L12.7069 11.9999L14.4755 13.7685C14.6703 13.9637 14.6705 14.2803 14.4755 14.4755C14.2803 14.6706 13.9637 14.6704 13.7684 14.4755L11.9999 12.7069L10.2323 14.4745C10.037 14.6698 9.72054 14.6698 9.52527 14.4745C9.33017 14.2792 9.33006 13.9627 9.52527 13.7675L11.2929 11.9999L9.52527 10.2323C9.33017 10.037 9.33006 9.7205 9.52527 9.52529C9.72049 9.33017 10.0371 9.33022 10.2323 9.52529L11.9999 11.2929L13.7684 9.52529Z" fill="white"/>
<path d="M32.124 5.956H33.72V11.56H32.124V5.956ZM26.316 12.052H33.72V15.064H27.9V16.18H26.328V13.924H32.136V13.276H26.316V12.052ZM26.328 15.748H33.996V16.996H26.328V15.748ZM27.096 6.208H28.416V7.036C28.416 7.716 28.3 8.364 28.068 8.98C27.836 9.596 27.48 10.132 27 10.588C26.528 11.044 25.928 11.384 25.2 11.608L24.432 10.348C24.896 10.204 25.296 10.016 25.632 9.784C25.968 9.552 26.244 9.288 26.46 8.992C26.676 8.696 26.836 8.384 26.94 8.056C27.044 7.72 27.096 7.38 27.096 7.036V6.208ZM27.42 6.208H28.716V7.036C28.716 7.372 28.768 7.7 28.872 8.02C28.976 8.332 29.132 8.628 29.34 8.908C29.548 9.188 29.816 9.436 30.144 9.652C30.472 9.868 30.86 10.04 31.308 10.168L30.54 11.416C30.012 11.256 29.552 11.036 29.16 10.756C28.768 10.468 28.44 10.132 28.176 9.748C27.92 9.356 27.728 8.932 27.6 8.476C27.48 8.02 27.42 7.54 27.42 7.036V6.208ZM42.5871 5.956H44.1111V17.068H42.5871V5.956ZM41.2551 10.216H43.1031V11.5H41.2551V10.216ZM40.2591 6.136H41.7471V16.54H40.2591V6.136ZM34.6431 7.192H39.7311V8.464H34.6431V7.192ZM34.6311 14.548L34.4631 13.24C34.8071 13.24 35.1991 13.24 35.6391 13.24C36.0791 13.232 36.5391 13.22 37.0191 13.204C37.5071 13.18 37.9911 13.152 38.4711 13.12C38.9511 13.08 39.3951 13.032 39.8031 12.976L39.9111 14.14C39.3511 14.252 38.7471 14.34 38.0991 14.404C37.4511 14.468 36.8231 14.508 36.2151 14.524C35.6071 14.54 35.0791 14.548 34.6311 14.548ZM35.3391 8.008H36.7791V13.576H35.3391V8.008ZM37.5951 8.008H39.0351V13.576H37.5951V8.008Z" fill="#FF5A5F"/>
</svg>
