<svg width="63" height="24" viewBox="0 0 63 24" fill="none" xmlns="http://www.w3.org/2000/svg">
<rect width="63" height="24" rx="12" fill="#408CFF" fill-opacity="0.1"/>
<path d="M17.5 12C17.5 13.0878 17.1774 14.1512 16.5731 15.0556C15.9687 15.9601 15.1098 16.6651 14.1048 17.0813C13.0998 17.4976 11.9939 17.6065 10.927 17.3943C9.86011 17.1821 8.8801 16.6583 8.11091 15.8891C7.34172 15.1199 6.8179 14.1399 6.60568 13.073C6.39346 12.0061 6.50238 10.9002 6.91866 9.89524C7.33494 8.89025 8.03989 8.03126 8.94436 7.42692C9.84883 6.82257 10.9122 6.5 12 6.5" stroke="#408CFF" stroke-linecap="round"/>
<path d="M27.202 7.192H28.522V8.128C28.522 8.824 28.406 9.488 28.174 10.12C27.95 10.744 27.606 11.292 27.142 11.764C26.678 12.228 26.086 12.576 25.366 12.808L24.55 11.56C25.174 11.36 25.678 11.08 26.062 10.72C26.454 10.36 26.742 9.956 26.926 9.508C27.11 9.052 27.202 8.592 27.202 8.128V7.192ZM27.538 7.192H28.834V8.128C28.834 8.456 28.886 8.784 28.99 9.112C29.094 9.432 29.25 9.74 29.458 10.036C29.674 10.324 29.946 10.584 30.274 10.816C30.602 11.048 30.99 11.236 31.438 11.38L30.634 12.616C29.938 12.392 29.362 12.056 28.906 11.608C28.45 11.16 28.106 10.636 27.874 10.036C27.65 9.428 27.538 8.792 27.538 8.128V7.192ZM24.982 6.736H31.03V8.008H24.982V6.736ZM32.146 5.956H33.742V13.972H32.146V5.956ZM26.338 15.592H34.03V16.876H26.338V15.592ZM26.338 13.252H27.934V16.228H26.338V13.252ZM42.5371 5.956H44.0611V12.916H42.5371V5.956ZM41.1931 8.692H42.9571V9.988H41.1931V8.692ZM40.2451 6.16H41.7331V12.544H40.2451V6.16ZM34.5331 7.084H39.9331V8.32H34.5331V7.084ZM37.2451 8.668C37.7171 8.668 38.1331 8.752 38.4931 8.92C38.8531 9.088 39.1331 9.316 39.3331 9.604C39.5411 9.892 39.6451 10.228 39.6451 10.612C39.6451 10.996 39.5411 11.336 39.3331 11.632C39.1331 11.92 38.8531 12.148 38.4931 12.316C38.1331 12.476 37.7171 12.556 37.2451 12.556C36.7891 12.556 36.3771 12.476 36.0091 12.316C35.6491 12.148 35.3651 11.92 35.1571 11.632C34.9491 11.336 34.8451 10.996 34.8451 10.612C34.8451 10.228 34.9491 9.892 35.1571 9.604C35.3651 9.316 35.6491 9.088 36.0091 8.92C36.3771 8.752 36.7891 8.668 37.2451 8.668ZM37.2451 9.82C36.9571 9.82 36.7211 9.888 36.5371 10.024C36.3611 10.16 36.2731 10.356 36.2731 10.612C36.2731 10.868 36.3611 11.068 36.5371 11.212C36.7211 11.348 36.9571 11.416 37.2451 11.416C37.5331 11.416 37.7691 11.348 37.9531 11.212C38.1371 11.068 38.2291 10.868 38.2291 10.612C38.2291 10.356 38.1371 10.16 37.9531 10.024C37.7771 9.888 37.5411 9.82 37.2451 9.82ZM36.4531 6.064H38.0251V7.936H36.4531V6.064ZM40.2931 13.024C41.4851 13.024 42.4211 13.2 43.1011 13.552C43.7811 13.904 44.1211 14.404 44.1211 15.052C44.1211 15.692 43.7811 16.188 43.1011 16.54C42.4211 16.892 41.4851 17.068 40.2931 17.068C39.1011 17.068 38.1651 16.892 37.4851 16.54C36.8131 16.188 36.4771 15.692 36.4771 15.052C36.4771 14.404 36.8131 13.904 37.4851 13.552C38.1651 13.2 39.1011 13.024 40.2931 13.024ZM40.3051 14.212C39.5611 14.212 39.0011 14.28 38.6251 14.416C38.2491 14.552 38.0611 14.764 38.0611 15.052C38.0611 15.332 38.2491 15.54 38.6251 15.676C39.0011 15.812 39.5611 15.88 40.3051 15.88C41.0331 15.88 41.5811 15.812 41.9491 15.676C42.3251 15.54 42.5131 15.332 42.5131 15.052C42.5131 14.764 42.3251 14.552 41.9491 14.416C41.5811 14.28 41.0331 14.212 40.3051 14.212ZM50.6549 11.536H52.2389V13.492H50.6549V11.536ZM46.4189 10.996H56.4749V12.268H46.4189V10.996ZM51.4229 13.048C52.6229 13.048 53.5669 13.224 54.2549 13.576C54.9429 13.92 55.2869 14.416 55.2869 15.064C55.2869 15.696 54.9429 16.188 54.2549 16.54C53.5669 16.892 52.6229 17.068 51.4229 17.068C50.2229 17.068 49.2789 16.892 48.5909 16.54C47.9109 16.188 47.5709 15.696 47.5709 15.064C47.5709 14.416 47.9109 13.92 48.5909 13.576C49.2789 13.224 50.2229 13.048 51.4229 13.048ZM51.4229 14.26C50.9269 14.26 50.5109 14.288 50.1749 14.344C49.8469 14.4 49.5989 14.488 49.4309 14.608C49.2629 14.72 49.1789 14.872 49.1789 15.064C49.1789 15.24 49.2629 15.388 49.4309 15.508C49.5989 15.628 49.8469 15.716 50.1749 15.772C50.5109 15.828 50.9269 15.856 51.4229 15.856C51.9189 15.856 52.3309 15.828 52.6589 15.772C52.9949 15.716 53.2469 15.628 53.4149 15.508C53.5829 15.388 53.6669 15.24 53.6669 15.064C53.6669 14.872 53.5829 14.72 53.4149 14.608C53.2469 14.488 52.9949 14.4 52.6589 14.344C52.3309 14.288 51.9189 14.26 51.4229 14.26ZM50.3549 7H51.7709V7.264C51.7709 7.6 51.7109 7.92 51.5909 8.224C51.4709 8.528 51.2909 8.812 51.0509 9.076C50.8189 9.332 50.5269 9.564 50.1749 9.772C49.8229 9.98 49.4149 10.152 48.9509 10.288C48.4869 10.424 47.9709 10.52 47.4029 10.576L46.8509 9.316C47.3389 9.276 47.7709 9.208 48.1469 9.112C48.5309 9.016 48.8589 8.9 49.1309 8.764C49.4109 8.62 49.6389 8.468 49.8149 8.308C49.9989 8.14 50.1349 7.968 50.2229 7.792C50.3109 7.616 50.3549 7.44 50.3549 7.264V7ZM51.1349 7H52.5389V7.264C52.5389 7.44 52.5829 7.62 52.6709 7.804C52.7589 7.98 52.8909 8.148 53.0669 8.308C53.2509 8.468 53.4789 8.62 53.7509 8.764C54.0309 8.9 54.3589 9.016 54.7349 9.112C55.1189 9.208 55.5549 9.276 56.0429 9.316L55.4909 10.576C54.9229 10.52 54.4069 10.424 53.9429 10.288C53.4789 10.152 53.0709 9.984 52.7189 9.784C52.3749 9.576 52.0829 9.344 51.8429 9.088C51.6109 8.824 51.4349 8.54 51.3149 8.236C51.1949 7.924 51.1349 7.6 51.1349 7.264V7ZM47.3429 6.412H55.5749V7.672H47.3429V6.412Z" fill="#408CFF"/>
</svg>
