<svg width="74" height="24" viewBox="0 0 74 24" fill="none" xmlns="http://www.w3.org/2000/svg">
<rect width="74" height="24" rx="12" fill="#15CC3E" fill-opacity="0.1"/>
<rect x="6" y="6" width="12" height="12" rx="6" fill="#15CC3E"/>
<path d="M14.8818 9.47848C15.0771 9.28322 15.3936 9.28322 15.5888 9.47848C15.7841 9.67374 15.7841 9.99025 15.5888 10.1855L11.3466 14.4277C11.3198 14.4545 11.2895 14.4766 11.2588 14.4961C11.2519 14.5038 11.2466 14.513 11.2392 14.5205C11.044 14.7157 10.7275 14.7157 10.5322 14.5205L8.4111 12.3994C8.21583 12.2041 8.21583 11.8876 8.4111 11.6923C8.60636 11.4971 8.92287 11.4971 9.11813 11.6923L10.8925 13.4668L14.8818 9.47848Z" fill="white"/>
<path d="M27.4945 10.444H29.0905V12.136H27.4945V10.444ZM28.2865 6.4C28.8225 6.4 29.2985 6.496 29.7145 6.688C30.1305 6.872 30.4585 7.136 30.6985 7.48C30.9385 7.816 31.0585 8.208 31.0585 8.656C31.0585 9.096 30.9385 9.488 30.6985 9.832C30.4585 10.168 30.1305 10.432 29.7145 10.624C29.2985 10.816 28.8225 10.912 28.2865 10.912C27.7505 10.912 27.2705 10.816 26.8465 10.624C26.4305 10.432 26.1025 10.168 25.8625 9.832C25.6225 9.488 25.5025 9.096 25.5025 8.656C25.5025 8.208 25.6225 7.816 25.8625 7.48C26.1025 7.136 26.4305 6.872 26.8465 6.688C27.2705 6.496 27.7505 6.4 28.2865 6.4ZM28.2865 7.588C28.0385 7.588 27.8145 7.632 27.6145 7.72C27.4225 7.8 27.2705 7.92 27.1585 8.08C27.0465 8.24 26.9905 8.432 26.9905 8.656C26.9905 8.88 27.0465 9.072 27.1585 9.232C27.2705 9.384 27.4225 9.504 27.6145 9.592C27.8145 9.672 28.0385 9.712 28.2865 9.712C28.5425 9.712 28.7665 9.672 28.9585 9.592C29.1505 9.504 29.2985 9.384 29.4025 9.232C29.5145 9.072 29.5705 8.88 29.5705 8.656C29.5705 8.432 29.5145 8.24 29.4025 8.08C29.2985 7.92 29.1505 7.8 28.9585 7.72C28.7665 7.632 28.5425 7.588 28.2865 7.588ZM32.1865 5.956H33.7825V14.428H32.1865V5.956ZM33.2305 9.448H35.1865V10.744H33.2305V9.448ZM26.3785 15.592H34.1665V16.864H26.3785V15.592ZM26.3785 13.708H27.9745V16.144H26.3785V13.708ZM25.1185 12.988L24.9265 11.728C25.5585 11.728 26.2505 11.724 27.0025 11.716C27.7625 11.7 28.5345 11.668 29.3185 11.62C30.1105 11.572 30.8705 11.496 31.5985 11.392L31.7065 12.532C30.9625 12.668 30.1985 12.772 29.4145 12.844C28.6305 12.908 27.8705 12.948 27.1345 12.964C26.3985 12.98 25.7265 12.988 25.1185 12.988ZM39.1576 7.18H40.5496V7.516C40.5496 7.9 40.4856 8.272 40.3576 8.632C40.2376 8.992 40.0536 9.328 39.8056 9.64C39.5576 9.944 39.2536 10.22 38.8936 10.468C38.5416 10.708 38.1336 10.912 37.6696 11.08C37.2056 11.248 36.6896 11.368 36.1216 11.44L35.5336 10.204C36.0296 10.14 36.4696 10.044 36.8536 9.916C37.2456 9.78 37.5856 9.624 37.8736 9.448C38.1616 9.264 38.4016 9.068 38.5936 8.86C38.7856 8.652 38.9256 8.432 39.0136 8.2C39.1096 7.968 39.1576 7.74 39.1576 7.516V7.18ZM39.6256 7.18H41.0056V7.516C41.0056 7.74 41.0496 7.968 41.1376 8.2C41.2336 8.432 41.3776 8.652 41.5696 8.86C41.7616 9.068 42.0016 9.264 42.2896 9.448C42.5856 9.624 42.9256 9.78 43.3096 9.916C43.6936 10.044 44.1336 10.14 44.6296 10.204L44.0416 11.44C43.4736 11.368 42.9576 11.248 42.4936 11.08C42.0296 10.912 41.6176 10.708 41.2576 10.468C40.9056 10.22 40.6056 9.944 40.3576 9.64C40.1176 9.328 39.9336 8.992 39.8056 8.632C39.6856 8.272 39.6256 7.9 39.6256 7.516V7.18ZM39.2416 13H40.8376V17.068H39.2416V13ZM35.0536 12.076H45.1096V13.36H35.0536V12.076ZM35.9416 6.52H44.1856V7.78H35.9416V6.52ZM49.4714 6.532H50.7914V7.516C50.7914 8.26 50.6754 8.96 50.4434 9.616C50.2194 10.272 49.8754 10.844 49.4114 11.332C48.9474 11.82 48.3514 12.188 47.6234 12.436L46.7834 11.152C47.4234 10.952 47.9394 10.664 48.3314 10.288C48.7234 9.912 49.0114 9.484 49.1954 9.004C49.3794 8.524 49.4714 8.028 49.4714 7.516V6.532ZM49.7954 6.532H51.0914V7.444C51.0914 7.932 51.1754 8.404 51.3434 8.86C51.5114 9.308 51.7794 9.708 52.1474 10.06C52.5154 10.404 52.9914 10.672 53.5754 10.864L52.7474 12.112C52.0674 11.872 51.5074 11.524 51.0674 11.068C50.6354 10.612 50.3154 10.076 50.1074 9.46C49.8994 8.836 49.7954 8.164 49.7954 7.444V6.532ZM54.5834 5.956H56.1914V12.46H54.5834V5.956ZM52.4234 12.748C53.5994 12.748 54.5274 12.94 55.2074 13.324C55.8874 13.7 56.2274 14.224 56.2274 14.896C56.2274 15.584 55.8874 16.116 55.2074 16.492C54.5274 16.876 53.5994 17.068 52.4234 17.068C51.2474 17.068 50.3194 16.876 49.6394 16.492C48.9594 16.116 48.6194 15.584 48.6194 14.896C48.6194 14.224 48.9594 13.7 49.6394 13.324C50.3194 12.94 51.2474 12.748 52.4234 12.748ZM52.4234 13.984C51.9434 13.984 51.5394 14.016 51.2114 14.08C50.8834 14.144 50.6314 14.248 50.4554 14.392C50.2874 14.528 50.2034 14.696 50.2034 14.896C50.2034 15.104 50.2874 15.28 50.4554 15.424C50.6314 15.56 50.8834 15.664 51.2114 15.736C51.5394 15.8 51.9434 15.832 52.4234 15.832C52.9034 15.832 53.3074 15.8 53.6354 15.736C53.9634 15.664 54.2114 15.56 54.3794 15.424C54.5474 15.28 54.6314 15.104 54.6314 14.896C54.6314 14.696 54.5474 14.528 54.3794 14.392C54.2114 14.248 53.9634 14.144 53.6354 14.08C53.3074 14.016 52.9034 13.984 52.4234 13.984ZM52.5554 7.972H54.8234V9.268H52.5554V7.972ZM61.9264 12.868C62.7264 12.868 63.4224 12.952 64.0144 13.12C64.6064 13.288 65.0624 13.528 65.3824 13.84C65.7104 14.152 65.8744 14.528 65.8744 14.968C65.8744 15.4 65.7104 15.772 65.3824 16.084C65.0624 16.404 64.6064 16.648 64.0144 16.816C63.4224 16.984 62.7264 17.068 61.9264 17.068C61.1344 17.068 60.4424 16.984 59.8504 16.816C59.2584 16.648 58.7984 16.404 58.4704 16.084C58.1504 15.772 57.9904 15.4 57.9904 14.968C57.9904 14.528 58.1504 14.152 58.4704 13.84C58.7984 13.528 59.2584 13.288 59.8504 13.12C60.4424 12.952 61.1344 12.868 61.9264 12.868ZM61.9264 14.068C61.4304 14.068 61.0064 14.1 60.6544 14.164C60.3024 14.228 60.0344 14.328 59.8504 14.464C59.6744 14.6 59.5864 14.768 59.5864 14.968C59.5864 15.168 59.6744 15.336 59.8504 15.472C60.0344 15.6 60.3024 15.7 60.6544 15.772C61.0064 15.836 61.4304 15.868 61.9264 15.868C62.4304 15.868 62.8584 15.836 63.2104 15.772C63.5624 15.7 63.8304 15.6 64.0144 15.472C64.1984 15.336 64.2904 15.168 64.2904 14.968C64.2904 14.768 64.1984 14.6 64.0144 14.464C63.8304 14.328 63.5624 14.228 63.2104 14.164C62.8584 14.1 62.4304 14.068 61.9264 14.068ZM58.1104 6.448H65.1544V7.696H58.1104V6.448ZM56.9944 10.912H66.9904V12.172H56.9944V10.912ZM60.6904 8.968H62.2864V11.224H60.6904V8.968ZM64.2184 6.448H65.8144V7.36C65.8144 7.8 65.8024 8.26 65.7784 8.74C65.7544 9.22 65.6624 9.748 65.5024 10.324L63.9184 10.168C64.0704 9.6 64.1584 9.096 64.1824 8.656C64.2064 8.216 64.2184 7.784 64.2184 7.36V6.448Z" fill="#15CC3E"/>
</svg>
